<mxfile host="app.diagrams.net" modified="2020-11-04T14:26:08.766Z" agent="5.0 (Windows NT 10.0; Win64; x64) AppleWebKit/537.36 (KHTML, like Gecko) Chrome/86.0.4240.111 Safari/537.36" etag="HCDZ9RkCaH2cyY10oHZO" version="13.8.8" type="github">
  <diagram id="EhR287y5YkpUC03FxleA" name="第 1 页">
    <mxGraphModel dx="1422" dy="706" grid="1" gridSize="10" guides="1" tooltips="1" connect="1" arrows="1" fold="1" page="1" pageScale="1" pageWidth="827" pageHeight="1169" math="0" shadow="0">
      <root>
        <mxCell id="0" />
        <mxCell id="1" parent="0" />
        <mxCell id="W_BsmtegTXsKVBHQ76cm-1" value="调度类" style="rounded=0;whiteSpace=wrap;html=1;fontSize=16;fillColor=#dae8fc;strokeColor=#6c8ebf;" parent="1" vertex="1">
          <mxGeometry x="160" y="160" width="90" height="57.99999999999999" as="geometry" />
        </mxCell>
        <mxCell id="W_BsmtegTXsKVBHQ76cm-5" value="运行队列" style="rounded=0;whiteSpace=wrap;html=1;fontSize=16;fillColor=#dae8fc;strokeColor=#6c8ebf;" parent="1" vertex="1">
          <mxGeometry x="580" y="160" width="100" height="57.99999999999999" as="geometry" />
        </mxCell>
        <mxCell id="W_BsmtegTXsKVBHQ76cm-6" value="Deadline" style="rounded=0;whiteSpace=wrap;html=1;fontSize=16;fillColor=#f9f7ed;strokeColor=#36393d;" parent="1" vertex="1">
          <mxGeometry x="160" y="218" width="90" height="57.99999999999999" as="geometry" />
        </mxCell>
        <mxCell id="W_BsmtegTXsKVBHQ76cm-9" value="dl_rq" style="rounded=0;whiteSpace=wrap;html=1;fontSize=16;fillColor=#f9f7ed;strokeColor=#36393d;" parent="1" vertex="1">
          <mxGeometry x="580" y="218" width="100" height="57.99999999999999" as="geometry" />
        </mxCell>
        <mxCell id="W_BsmtegTXsKVBHQ76cm-10" value="Realtime" style="rounded=0;whiteSpace=wrap;html=1;fontSize=16;fillColor=#f9f7ed;strokeColor=#36393d;" parent="1" vertex="1">
          <mxGeometry x="160" y="276" width="90" height="57.99999999999999" as="geometry" />
        </mxCell>
        <mxCell id="W_BsmtegTXsKVBHQ76cm-13" value="rt_rq" style="rounded=0;whiteSpace=wrap;html=1;fontSize=16;fillColor=#f9f7ed;strokeColor=#36393d;" parent="1" vertex="1">
          <mxGeometry x="580" y="276" width="100" height="57.99999999999999" as="geometry" />
        </mxCell>
        <mxCell id="W_BsmtegTXsKVBHQ76cm-14" value="Fair" style="rounded=0;whiteSpace=wrap;html=1;fontSize=16;fillColor=#f9f7ed;strokeColor=#36393d;" parent="1" vertex="1">
          <mxGeometry x="160" y="334" width="90" height="57.99999999999999" as="geometry" />
        </mxCell>
        <mxCell id="W_BsmtegTXsKVBHQ76cm-17" value="cfs_rq" style="rounded=0;whiteSpace=wrap;html=1;fontSize=16;fillColor=#f9f7ed;strokeColor=#36393d;" parent="1" vertex="1">
          <mxGeometry x="580" y="334" width="100" height="57.99999999999999" as="geometry" />
        </mxCell>
        <mxCell id="W_BsmtegTXsKVBHQ76cm-23" value="" style="group" parent="1" vertex="1" connectable="0">
          <mxGeometry x="390" y="160" width="190" height="231.99999999999997" as="geometry" />
        </mxCell>
        <mxCell id="W_BsmtegTXsKVBHQ76cm-4" value="调度策略" style="rounded=0;whiteSpace=wrap;html=1;fontSize=16;fillColor=#dae8fc;strokeColor=#6c8ebf;" parent="W_BsmtegTXsKVBHQ76cm-23" vertex="1">
          <mxGeometry width="190" height="57.99999999999999" as="geometry" />
        </mxCell>
        <mxCell id="W_BsmtegTXsKVBHQ76cm-8" value="SCHED_DEADLINE" style="rounded=0;whiteSpace=wrap;html=1;fontSize=16;fillColor=#f9f7ed;strokeColor=#36393d;" parent="W_BsmtegTXsKVBHQ76cm-23" vertex="1">
          <mxGeometry y="57.99999999999999" width="190" height="57.99999999999999" as="geometry" />
        </mxCell>
        <mxCell id="W_BsmtegTXsKVBHQ76cm-12" value="SCHED_FIFO&lt;br&gt;SCHED_RR" style="rounded=0;whiteSpace=wrap;html=1;fontSize=16;fillColor=#f9f7ed;strokeColor=#36393d;" parent="W_BsmtegTXsKVBHQ76cm-23" vertex="1">
          <mxGeometry y="115.99999999999999" width="190" height="57.99999999999999" as="geometry" />
        </mxCell>
        <mxCell id="W_BsmtegTXsKVBHQ76cm-16" value="SCHED_NORMAL&lt;br&gt;SCHED_BATCH" style="rounded=0;whiteSpace=wrap;html=1;fontSize=16;fillColor=#f9f7ed;strokeColor=#36393d;" parent="W_BsmtegTXsKVBHQ76cm-23" vertex="1">
          <mxGeometry y="174" width="190" height="57.99999999999999" as="geometry" />
        </mxCell>
        <mxCell id="W_BsmtegTXsKVBHQ76cm-2" value="调度器" style="rounded=0;whiteSpace=wrap;html=1;fontSize=16;fillColor=#dae8fc;strokeColor=#6c8ebf;" parent="1" vertex="1">
          <mxGeometry x="250" y="160" width="140" height="57.99999999999999" as="geometry" />
        </mxCell>
        <mxCell id="W_BsmtegTXsKVBHQ76cm-7" value="Deadline 调度器" style="rounded=0;whiteSpace=wrap;html=1;fontSize=16;fillColor=#f9f7ed;strokeColor=#36393d;" parent="1" vertex="1">
          <mxGeometry x="250" y="218" width="140" height="57.99999999999999" as="geometry" />
        </mxCell>
        <mxCell id="W_BsmtegTXsKVBHQ76cm-11" value="RT 调度器" style="rounded=0;whiteSpace=wrap;html=1;fontSize=16;fillColor=#f9f7ed;strokeColor=#36393d;" parent="1" vertex="1">
          <mxGeometry x="250" y="276" width="140" height="57.99999999999999" as="geometry" />
        </mxCell>
        <mxCell id="W_BsmtegTXsKVBHQ76cm-15" value="CFS 调度器" style="rounded=0;whiteSpace=wrap;html=1;fontSize=16;fillColor=#f9f7ed;strokeColor=#36393d;" parent="1" vertex="1">
          <mxGeometry x="250" y="334" width="140" height="57.99999999999999" as="geometry" />
        </mxCell>
      </root>
    </mxGraphModel>
  </diagram>
</mxfile>
